<?xml version="1.0" encoding="UTF-8" standalone="no"?>
<!-- Generator: Adobe Illustrator 19.0.0, SVG Export Plug-In . SVG Version: 6.00 Build 0)  -->

<svg
   xmlns:dc="http://purl.org/dc/elements/1.1/"
   xmlns:cc="http://creativecommons.org/ns#"
   xmlns:rdf="http://www.w3.org/1999/02/22-rdf-syntax-ns#"
   xmlns:svg="http://www.w3.org/2000/svg"
   xmlns="http://www.w3.org/2000/svg"
   xmlns:sodipodi="http://sodipodi.sourceforge.net/DTD/sodipodi-0.dtd"
   xmlns:inkscape="http://www.inkscape.org/namespaces/inkscape"
   version="1.1"
   id="Capa_1"
   x="0px"
   y="0px"
   viewBox="0 0 294.842 294.842"
   style="enable-background:new 0 0 294.842 294.842;"
   xml:space="preserve"
   width="512px"
   height="512px"
   sodipodi:docname="cv.svg"
   inkscape:version="0.92.2 (5c3e80d, 2017-08-06)"><metadata
     id="metadata53"><rdf:RDF><cc:Work
         rdf:about=""><dc:format>image/svg+xml</dc:format><dc:type
           rdf:resource="http://purl.org/dc/dcmitype/StillImage" /></cc:Work></rdf:RDF></metadata><defs
     id="defs51" /><sodipodi:namedview
     pagecolor="#ffffff"
     bordercolor="#666666"
     borderopacity="1"
     objecttolerance="10"
     gridtolerance="10"
     guidetolerance="10"
     inkscape:pageopacity="0"
     inkscape:pageshadow="2"
     inkscape:window-width="1366"
     inkscape:window-height="705"
     id="namedview49"
     showgrid="false"
     inkscape:zoom="0.4609375"
     inkscape:cx="-221.28814"
     inkscape:cy="257.82569"
     inkscape:window-x="-8"
     inkscape:window-y="-8"
     inkscape:window-maximized="1"
     inkscape:current-layer="layer2" /><g
     id="g18" /><g
     id="g20" /><g
     id="g22" /><g
     id="g24" /><g
     id="g26" /><g
     id="g28" /><g
     id="g30" /><g
     id="g32" /><g
     id="g34" /><g
     id="g36" /><g
     id="g38" /><g
     id="g40" /><g
     id="g42" /><g
     id="g44" /><g
     id="g46" /><g
     inkscape:groupmode="layer"
     id="layer1"
     inkscape:label="Layer 1"
     style="display:inline"><g
       id="g16"
       style="fill:#fffcfc;fill-opacity:1"
       transform="matrix(0.80841892,0,0,0.81118447,1.0736152,55.670756)"><path
         d="M 288.842,0 H 6 C 2.687,0 0,2.687 0,6 v 282.842 c 0,3.313 2.687,6 6,6 h 240.421 c 3.313,0 6,-2.687 6,-6 0,-3.313 -2.687,-6 -6,-6 H 12 V 12 h 270.842 v 276.842 c 0,3.313 2.687,6 6,6 3.313,0 6,-2.687 6,-6 V 6 c 0,-3.313 -2.687,-6 -6,-6 z"
         id="path2"
         style="fill:#fffcfc;fill-opacity:1"
         inkscape:connector-curvature="0" /><path
         d="m 65.815,62.421 c -12.683,0 -23,10.317 -23,23 0,12.683 10.317,23 23,23 12.683,0 23,-10.317 23,-23 0,-12.683 -10.317,-23 -23,-23 z m 0,34 c -6.065,0 -11,-4.935 -11,-11 0,-6.065 4.935,-11 11,-11 6.065,0 11,4.935 11,11 0,6.065 -4.934,11 -11,11 z"
         id="path4"
         style="fill:#fffcfc;fill-opacity:1"
         inkscape:connector-curvature="0" /><path
         d="m 246.815,79.421 h -140 c -3.313,0 -6,2.687 -6,6 0,3.313 2.687,6 6,6 h 140 c 3.313,0 6,-2.687 6,-6 0,-3.313 -2.686,-6 -6,-6 z"
         id="path6"
         style="fill:#fffcfc;fill-opacity:1"
         inkscape:connector-curvature="0" /><path
         d="m 65.815,124.421 c -3.313,0 -6,2.687 -6,6 0,3.313 2.687,6 6,6 6.065,0 11,4.935 11,11 0,6.065 -4.935,11 -11,11 -6.065,0 -11,-4.935 -11,-11 0,-3.313 -2.687,-6 -6,-6 -3.313,0 -6,2.687 -6,6 0,12.683 10.317,23 23,23 12.683,0 23,-10.317 23,-23 0,-12.683 -10.317,-23 -23,-23 z"
         id="path8"
         style="fill:#fffcfc;fill-opacity:1"
         inkscape:connector-curvature="0" /><path
         d="m 246.815,141.421 h -140 c -3.313,0 -6,2.687 -6,6 0,3.313 2.687,6 6,6 h 140 c 3.313,0 6,-2.687 6,-6 0,-3.313 -2.686,-6 -6,-6 z"
         id="path10"
         style="fill:#fffcfc;fill-opacity:1"
         inkscape:connector-curvature="0" /><path
         d="m 65.815,186.421 c -12.683,0 -23,10.317 -23,23 0,12.683 10.317,23 23,23 12.683,0 23,-10.317 23,-23 0,-12.683 -10.317,-23 -23,-23 z m 0,34 c -6.065,0 -11,-4.935 -11,-11 0,-6.065 4.935,-11 11,-11 6.065,0 11,4.935 11,11 0,6.065 -4.934,11 -11,11 z"
         id="path12"
         style="fill:#fffcfc;fill-opacity:1"
         inkscape:connector-curvature="0" /><path
         d="m 246.815,203.421 h -140 c -3.313,0 -6,2.687 -6,6 0,3.313 2.687,6 6,6 h 140 c 3.313,0 6,-2.687 6,-6 0,-3.313 -2.686,-6 -6,-6 z"
         id="path14"
         style="fill:#fffcfc;fill-opacity:1"
         inkscape:connector-curvature="0" /></g></g><g
     inkscape:groupmode="layer"
     id="layer2"
     inkscape:label="Layer 2"
     style="display:inline"><g
       transform="matrix(0.44566271,0,0,0.4733786,96.51941,1.3970823)"
       id="g6"
       style="display:inline;fill:#fffcfc;fill-opacity:1"><g
         id="g4"
         style="fill:#fffcfc;fill-opacity:1"><path
           inkscape:connector-curvature="0"
           d="m 369.464,339.057 c -0.405,-0.043 -56.194,1.396 -64.702,-58.184 20.437,-14.371 36.793,-37.544 46.039,-65.952 0.369,2.755 0.669,5.525 0.839,8.325 0.29,4.805 3.525,8.928 8.121,10.353 1.13,0.349 2.283,0.519 3.424,0.519 3.505,0 6.9,-1.598 9.13,-4.462 C 391.979,204.4 402.201,171.501 401.1,137.022 400.018,103.192 388.143,71.455 367.659,47.655 346.783,23.401 319.263,9.909 290.138,9.644 288.651,9.579 284.356,9.737 283.515,9.796 268.343,2.801 252.291,-0.468 235.773,0.054 c -33.699,1.077 -64.723,17.911 -87.36,47.399 -22.108,28.803 -33.589,66.405 -32.328,105.878 0.214,6.686 0.742,12.843 1.598,18.726 2.305,16.822 6.937,32.932 13.771,47.884 1.778,3.891 5.559,6.483 9.829,6.739 4.284,0.253 8.334,-1.866 10.565,-5.516 1.413,-2.312 3.298,-5.317 5.399,-8.125 0.766,-1.034 1.551,-2.037 2.345,-3.025 6.196,21.189 16.413,40.232 29.691,54.975 5.56,6.173 11.586,11.508 17.955,15.961 -9.659,60.085 -64.292,58.067 -64.697,58.11 -40.848,1.399 -73.652,35.042 -73.652,76.226 v 85.148 c 0,6.39 5.179,11.569 11.569,11.569 h 351.087 c 6.39,0 11.569,-5.179 11.569,-11.569 v -85.148 c 0.001,-41.186 -32.804,-74.83 -73.65,-76.229 z M 159.453,177.75 c -0.364,0.27 -10.527,9.255 -14.129,13.299 -2.104,-7.181 -3.687,-14.605 -4.732,-22.229 -0.744,-5.112 -1.195,-10.42 -1.38,-16.229 -1.091,-34.142 8.695,-66.478 27.556,-91.05 18.336,-23.886 43.104,-37.51 69.744,-38.362 0.892,-0.029 19.835,-1.163 39.67,8.757 1.705,0.853 3.708,1.262 5.596,1.2 0.216,-0.007 7.796,-0.357 7.969,-0.356 22.428,0.148 43.868,10.792 60.374,29.968 17.047,19.807 26.938,46.447 27.851,75.012 0.587,18.332 -2.571,36.07 -9.078,51.937 -1.895,-6.105 -4.224,-12.071 -6.984,-17.872 -13.59,-28.914 -36.45,-51.305 -64.369,-63.046 -2.91,-1.224 -6.194,-1.206 -9.087,0.05 -2.896,1.255 -5.153,3.64 -6.247,6.599 -1.964,5.309 -4.349,10.482 -7.084,15.374 -8.047,14.393 -24.216,22.939 -42.15,22.327 -2.477,-0.084 -4.982,-0.088 -7.452,-0.009 -12.132,0.389 -23.962,2.699 -35.209,6.888 -11.141,4.206 -21.498,10.18 -30.859,17.742 z m 19.503,14.257 c 6.084,-4.263 12.609,-7.74 19.482,-10.336 8.842,-3.293 18.201,-5.118 27.823,-5.426 1.957,-0.061 7.673,0.053 8.551,0.053 25.603,-0.002 48.619,-12.942 60.508,-34.206 1.256,-2.248 2.451,-4.543 3.581,-6.877 14.952,8.562 27.642,21.214 36.915,36.782 -0.169,0.647 -0.294,1.313 -0.349,2.003 -2.253,27.855 -11.889,53.452 -27.136,72.078 -14.608,17.846 -33.215,27.674 -52.391,27.674 -35.659,0.002 -67.264,-33.989 -76.984,-81.745 z m 50.014,100.207 c 8.727,3.081 17.793,4.677 26.97,4.677 9.362,0 18.446,-1.637 27.091,-4.701 5.112,25.764 21.646,47.462 44.092,59.571 -7.895,32.318 -37.132,55.796 -71.118,55.796 -33.987,0 -63.223,-23.478 -71.119,-55.797 22.436,-12.105 38.967,-33.793 44.084,-59.546 z M 92.028,488.862 v -73.579 c 0,-29.31 23.845,-53.155 53.154,-53.155 0.415,0 11.231,-0.272 17.905,-2.191 11.326,41.154 49.136,70.76 92.916,70.76 43.779,0 81.589,-29.606 92.915,-70.76 6.505,1.775 17.489,2.191 17.904,2.191 29.309,0 53.154,23.845 53.154,53.155 v 73.579 z"
           id="path2-0"
           style="fill:#fffcfc;fill-opacity:1" /></g></g><path
       style="fill:#fffcfc;fill-opacity:1;fill-rule:evenodd;stroke:none;stroke-width:7.26928854;stroke-miterlimit:4;stroke-dasharray:none;stroke-opacity:1"
       d="m 138.74987,211.6614 c 0,-19.9915 0.17689,-21.47407 3.16688,-26.54377 3.79882,-6.44109 10.8941,-10.60888 19.98809,-11.74106 l 6.67414,-0.83092 2.99378,7.17726 c 3.79787,9.10495 15.71734,20.44865 24.67237,23.4806 8.00931,2.71175 20.71303,2.71175 28.72235,0 8.95504,-3.03195 20.8745,-14.37565 24.67237,-23.4806 l 2.99378,-7.17726 6.67413,0.81735 c 8.95097,1.09618 16.59114,5.64605 20.20261,12.03104 2.71806,4.80546 2.95239,6.8953 2.95239,26.33064 v 21.11088 H 210.6063 138.74987 Z"
       id="path892"
       inkscape:connector-curvature="0" /><path
       style="fill:#fffcfc;fill-opacity:1;fill-rule:evenodd;stroke:none;stroke-width:7.26928854;stroke-miterlimit:4;stroke-dasharray:none;stroke-opacity:1"
       d="m 200.2393,191.73858 c -6.28048,-2.2584 -14.27107,-9.29761 -17.34036,-15.27578 -3.47103,-6.76066 -3.32115,-8.12288 1.26439,-11.49163 4.7631,-3.49919 11.04286,-12.44335 13.06117,-18.60282 l 1.50254,-4.58539 h 11.87926 11.87927 l 1.51434,4.58539 c 2.2387,6.77869 7.01833,13.75759 12.27829,17.92792 5.38698,4.27104 5.56175,5.29826 2.06138,12.11606 -6.93872,13.51479 -24.02453,20.38774 -38.10028,15.32625 z"
       id="path894"
       inkscape:connector-curvature="0" /><path
       style="fill:#fffcfc;fill-opacity:1;fill-rule:evenodd;stroke:none;stroke-width:7.26928854;stroke-miterlimit:4;stroke-dasharray:none;stroke-opacity:1"
       d="m 203.22749,129.23339 c -9.92947,-2.86335 -22.99579,-19.93593 -25.09489,-32.78921 -0.74248,-4.54631 -0.60371,-4.728192 5.63813,-7.390211 3.51964,-1.501053 10.84917,-3.125571 16.28784,-3.610039 12.70035,-1.131327 21.55285,-5.638176 26.28716,-13.382932 1.85809,-3.039604 3.76379,-5.545186 4.23489,-5.567962 0.47111,-0.02278 3.88264,3.248618 7.58119,7.269766 7.78368,8.462598 8.38495,12.046657 4.24064,25.277907 -4.8626,15.524531 -14.32343,26.902211 -25.01717,30.085831 -5.84575,1.74034 -8.42568,1.7598 -14.15779,0.10684 z"
       id="path896"
       inkscape:connector-curvature="0" /><path
       style="fill:#fffcfc;fill-opacity:1;fill-rule:evenodd;stroke:none;stroke-width:7.26928854;stroke-miterlimit:4;stroke-dasharray:none;stroke-opacity:1"
       d="m 160.84717,87.881676 c -0.55101,-1.338411 -0.94107,-9.213288 -0.86681,-17.499724 0.10666,-11.903046 0.73072,-16.694417 2.97232,-22.821147 9.731,-26.596682 30.08711,-39.4440784 51.23782,-32.337847 4.50935,1.515057 10.47429,2.754648 13.25541,2.754648 6.61655,0 17.55978,5.502512 22.84996,11.489497 5.5717,6.305585 11.36825,18.847362 13.1801,28.517263 1.45674,7.774655 0.79904,21.462126 -1.30252,27.107168 -0.99431,2.670816 -1.51586,2.14782 -5.31419,-5.328944 -4.94452,-9.732958 -12.92574,-18.799487 -21.1306,-24.004011 -8.92847,-5.663528 -11.19899,-5.097509 -15.7881,3.935822 -5.08868,10.016742 -8.55292,12.111838 -22.31948,13.498367 -12.98819,1.308134 -22.37738,5.097808 -30.3398,12.245772 -4.91256,4.410068 -5.52811,4.643802 -6.43411,2.443136 z"
       id="path898"
       inkscape:connector-curvature="0" /></g></svg>